<svg width="41" height="41" viewBox="0 0 41 41" fill="none" xmlns="http://www.w3.org/2000/svg">
<path d="M32.4531 0.109375H8.54688C6.30911 0.109375 4.163 0.998323 2.58066 2.58066C0.998323 4.163 0.109375 6.30911 0.109375 8.54688V32.4531C0.109375 34.6909 0.998323 36.837 2.58066 38.4193C4.163 40.0017 6.30911 40.8906 8.54688 40.8906H32.4531C34.6909 40.8906 36.837 40.0017 38.4193 38.4193C40.0017 36.837 40.8906 34.6909 40.8906 32.4531V8.54688C40.8906 6.30911 40.0017 4.163 38.4193 2.58066C36.837 0.998323 34.6909 0.109375 32.4531 0.109375ZM13.9659 22.1122L19.7969 27.9431V6.4375H21.2031V27.9431L27.0341 22.1122L28.0284 23.1066L20.9972 30.1378C20.9319 30.2031 20.8544 30.2549 20.7691 30.2903C20.6838 30.3256 20.5923 30.3438 20.5 30.3438C20.4077 30.3438 20.3162 30.3256 20.2309 30.2903C20.1456 30.2549 20.0681 30.2031 20.0028 30.1378L12.9716 23.1066L13.9659 22.1122ZM34.5625 33.8594C34.5625 34.0459 34.4884 34.2247 34.3566 34.3566C34.2247 34.4884 34.0459 34.5625 33.8594 34.5625H7.14062C6.95414 34.5625 6.7753 34.4884 6.64344 34.3566C6.51158 34.2247 6.4375 34.0459 6.4375 33.8594V19.7969C6.4375 19.6104 6.51158 19.4316 6.64344 19.2997C6.7753 19.1678 6.95414 19.0938 7.14062 19.0938H10.6562V20.5H7.84375V33.1562H33.1562V20.5H30.3438V19.0938H33.8594C34.0459 19.0938 34.2247 19.1678 34.3566 19.2997C34.4884 19.4316 34.5625 19.6104 34.5625 19.7969V33.8594Z" fill="#0B304F"/>
</svg>
