<svg width="19" height="19" viewBox="0 0 19 19" fill="none" xmlns="http://www.w3.org/2000/svg">
<g clip-path="url(#clip0)">
<path d="M16.7149 2.7121H1.87895C1.63542 2.7121 1.40743 2.77197 1.20117 2.87065L9.26176 10.9312L11.0684 9.19498C11.0684 9.19498 11.0685 9.1948 11.0686 9.19473C11.0686 9.19466 11.0688 9.19459 11.0688 9.19459L17.3929 2.87079C17.1866 2.77204 16.9585 2.7121 16.7149 2.7121Z" fill="#12AADB"/>
<path d="M18.1389 3.61661L12.1875 9.56765L18.1386 15.5188C18.2373 15.3125 18.2972 15.0845 18.2972 14.841V4.29414C18.2972 4.05075 18.2375 3.8228 18.1389 3.61661Z" fill="#12AADB"/>
<path d="M0.45543 3.61633C0.356746 3.82259 0.296875 4.05058 0.296875 4.29411V14.841C0.296875 15.0844 0.356676 15.3124 0.455289 15.5186L6.40664 9.56755L0.45543 3.61633Z" fill="#12AADB"/>
<path d="M11.4418 10.3133L9.63487 12.0498C9.53187 12.1528 9.39694 12.2043 9.26204 12.2043C9.12715 12.2043 8.99218 12.1528 8.88921 12.0498L7.15263 10.3133L1.20117 16.2643C1.40747 16.3631 1.6356 16.423 1.8792 16.423H16.7151C16.9587 16.423 17.1866 16.3632 17.3929 16.2645L11.4418 10.3133Z" fill="#12AADB"/>
</g>
<defs>
<clipPath id="clip0">
<rect width="18" height="18" fill="white" transform="translate(0.296875 0.567566)"/>
</clipPath>
</defs>
</svg>
